<?xml version="1.0" encoding="utf-8"?><svg xmlns="http://www.w3.org/2000/svg" xmlns:xlink="http://www.w3.org/1999/xlink"><symbol fill="none" stroke="currentColor" stroke-width="2" stroke-linecap="round" stroke-linejoin="round" class="aicon aicon-tabler aicons-tabler-outline aicon-tabler-calculator" viewBox="0 0 24 24" id="calculator" xmlns="http://www.w3.org/2000/svg"><path d="M0 0h24v24H0z" stroke="none"/><path d="M4 5a2 2 0 0 1 2-2h12a2 2 0 0 1 2 2v14a2 2 0 0 1-2 2H6a2 2 0 0 1-2-2z"/><path d="M8 8a1 1 0 0 1 1-1h6a1 1 0 0 1 1 1v1a1 1 0 0 1-1 1H9a1 1 0 0 1-1-1zM8 14v.01M12 14v.01M16 14v.01M8 17v.01M12 17v.01M16 17v.01"/></symbol><symbol fill="none" stroke="currentColor" stroke-width="2" stroke-linecap="round" stroke-linejoin="round" class="bicon bicon-tabler bicons-tabler-outline bicon-tabler-cloud-upload" viewBox="0 0 24 24" id="cloud-upload" xmlns="http://www.w3.org/2000/svg"><path d="M0 0h24v24H0z" stroke="none"/><path d="M7 18a4.6 4.4 0 0 1 0-9 5 4.5 0 0 1 11 2h1a3.5 3.5 0 0 1 0 7h-1"/><path d="m9 15 3-3 3 3M12 12v9"/></symbol><symbol fill="none" stroke="currentColor" stroke-width="2" stroke-linecap="round" stroke-linejoin="round" class="cicon cicon-tabler cicons-tabler-outline cicon-tabler-download" viewBox="0 0 24 24" id="download" xmlns="http://www.w3.org/2000/svg"><path d="M0 0h24v24H0z" stroke="none"/><path d="M4 17v2a2 2 0 0 0 2 2h12a2 2 0 0 0 2-2v-2M7 11l5 5 5-5M12 4v12"/></symbol><symbol fill="none" stroke="currentColor" stroke-width="2" stroke-linecap="round" stroke-linejoin="round" class="dicon dicon-tabler dicons-tabler-outline dicon-tabler-edit" viewBox="0 0 24 24" id="edit" xmlns="http://www.w3.org/2000/svg"><path d="M0 0h24v24H0z" stroke="none"/><path d="M7 7H6a2 2 0 0 0-2 2v9a2 2 0 0 0 2 2h9a2 2 0 0 0 2-2v-1"/><path d="M20.385 6.585a2.1 2.1 0 0 0-2.97-2.97L9 12v3h3l8.385-8.415zM16 5l3 3"/></symbol><symbol fill="none" stroke="currentColor" stroke-width="2" stroke-linecap="round" stroke-linejoin="round" class="ficon ficon-tabler ficons-tabler-outline ficon-tabler-eye" viewBox="0 0 24 24" id="eye" xmlns="http://www.w3.org/2000/svg"><path d="M0 0h24v24H0z" stroke="none"/><path d="M10 12a2 2 0 1 0 4 0 2 2 0 0 0-4 0"/><path d="M21 12c-2.4 4-5.4 6-9 6-3.6 0-6.6-2-9-6 2.4-4 5.4-6 9-6 3.6 0 6.6 2 9 6"/></symbol><symbol fill="none" stroke="currentColor" stroke-width="2" stroke-linecap="round" stroke-linejoin="round" class="eicon eicon-tabler eicons-tabler-outline eicon-tabler-eye-off" viewBox="0 0 24 24" id="eye-off" xmlns="http://www.w3.org/2000/svg"><path d="M0 0h24v24H0z" stroke="none"/><path d="M10.585 10.587a2 2 0 0 0 2.829 2.828"/><path d="M16.681 16.673A8.717 8.717 0 0 1 12 18c-3.6 0-6.6-2-9-6 1.272-2.12 2.712-3.678 4.32-4.674m2.86-1.146A9.055 9.055 0 0 1 12 6c3.6 0 6.6 2 9 6-.666 1.11-1.379 2.067-2.138 2.87M3 3l18 18"/></symbol><symbol fill="none" stroke="currentColor" stroke-width="2" stroke-linecap="round" stroke-linejoin="round" class="gicon gicon-tabler gicons-tabler-outline gicon-tabler-file-analytics" viewBox="0 0 24 24" id="file-analytics" xmlns="http://www.w3.org/2000/svg"><path d="M0 0h24v24H0z" stroke="none"/><path d="M14 3v4a1 1 0 0 0 1 1h4"/><path d="M17 21H7a2 2 0 0 1-2-2V5a2 2 0 0 1 2-2h7l5 5v11a2 2 0 0 1-2 2zM9 17v-5M12 17v-1M15 17v-3"/></symbol><symbol fill="none" stroke="currentColor" stroke-width="2" stroke-linecap="round" stroke-linejoin="round" class="hicon hicon-tabler hicons-tabler-outline hicon-tabler-file-type-pdf" viewBox="0 0 24 24" id="file-type-pdf" xmlns="http://www.w3.org/2000/svg"><path d="M0 0h24v24H0z" stroke="none"/><path d="M14 3v4a1 1 0 0 0 1 1h4"/><path d="M5 12V5a2 2 0 0 1 2-2h7l5 5v4M5 18h1.5a1.5 1.5 0 0 0 0-3H5v6M17 18h2M20 15h-3v6M11 15v6h1a2 2 0 0 0 2-2v-2a2 2 0 0 0-2-2h-1z"/></symbol><symbol fill="none" stroke="currentColor" stroke-width="2" stroke-linecap="round" stroke-linejoin="round" class="iicon iicon-tabler iicons-tabler-outline iicon-tabler-gift" viewBox="0 0 24 24" id="gift" xmlns="http://www.w3.org/2000/svg"><path d="M0 0h24v24H0z" stroke="none"/><path d="M3 9a1 1 0 0 1 1-1h16a1 1 0 0 1 1 1v2a1 1 0 0 1-1 1H4a1 1 0 0 1-1-1zM12 8v13"/><path d="M19 12v7a2 2 0 0 1-2 2H7a2 2 0 0 1-2-2v-7M7.5 8a2.5 2.5 0 0 1 0-5A4.8 8 0 0 1 12 8a4.8 8 0 0 1 4.5-5 2.5 2.5 0 0 1 0 5"/></symbol><symbol fill="none" stroke="currentColor" stroke-width="2" stroke-linecap="round" stroke-linejoin="round" class="jicon jicon-tabler jicons-tabler-outline jicon-tabler-help-circle" viewBox="0 0 24 24" id="help-circle" xmlns="http://www.w3.org/2000/svg"><path d="M0 0h24v24H0z" stroke="none"/><path d="M3 12a9 9 0 1 0 18 0 9 9 0 0 0-18 0M12 16v.01"/><path d="M12 13a2 2 0 0 0 .914-3.782 1.98 1.98 0 0 0-2.414.483"/></symbol><symbol fill="none" stroke="currentColor" stroke-width="2" stroke-linecap="round" stroke-linejoin="round" class="kicon kicon-tabler kicons-tabler-outline kicon-tabler-home" viewBox="0 0 24 24" id="home" xmlns="http://www.w3.org/2000/svg"><path d="M0 0h24v24H0z" stroke="none"/><path d="M5 12H3l9-9 9 9h-2M5 12v7a2 2 0 0 0 2 2h10a2 2 0 0 0 2-2v-7"/><path d="M9 21v-6a2 2 0 0 1 2-2h2a2 2 0 0 1 2 2v6"/></symbol><symbol fill="none" stroke="currentColor" stroke-width="2" stroke-linecap="round" stroke-linejoin="round" class="licon licon-tabler licons-tabler-outline licon-tabler-logout" viewBox="0 0 24 24" id="logout" xmlns="http://www.w3.org/2000/svg"><path d="M0 0h24v24H0z" stroke="none"/><path d="M14 8V6a2 2 0 0 0-2-2H5a2 2 0 0 0-2 2v12a2 2 0 0 0 2 2h7a2 2 0 0 0 2-2v-2"/><path d="M9 12h12l-3-3M18 15l3-3"/></symbol><symbol fill="none" stroke="currentColor" stroke-width="2" stroke-linecap="round" stroke-linejoin="round" class="micon micon-tabler micons-tabler-outline micon-tabler-settings" viewBox="0 0 24 24" id="settings" xmlns="http://www.w3.org/2000/svg"><path d="M0 0h24v24H0z" stroke="none"/><path d="M10.325 4.317c.426-1.756 2.924-1.756 3.35 0a1.724 1.724 0 0 0 2.573 1.066c1.543-.94 3.31.826 2.37 2.37a1.724 1.724 0 0 0 1.065 2.572c1.756.426 1.756 2.924 0 3.35a1.724 1.724 0 0 0-1.066 2.573c.94 1.543-.826 3.31-2.37 2.37a1.724 1.724 0 0 0-2.572 1.065c-.426 1.756-2.924 1.756-3.35 0a1.724 1.724 0 0 0-2.573-1.066c-1.543.94-3.31-.826-2.37-2.37a1.724 1.724 0 0 0-1.065-2.572c-1.756-.426-1.756-2.924 0-3.35a1.724 1.724 0 0 0 1.066-2.573c-.94-1.543.826-3.31 2.37-2.37 1 .608 2.296.07 2.572-1.065z"/><path d="M9 12a3 3 0 1 0 6 0 3 3 0 0 0-6 0"/></symbol><symbol fill="none" stroke="currentColor" stroke-width="2" stroke-linecap="round" stroke-linejoin="round" class="nicon nicon-tabler nicons-tabler-outline nicon-tabler-user" viewBox="0 0 24 24" id="user" xmlns="http://www.w3.org/2000/svg"><path d="M0 0h24v24H0z" stroke="none"/><path d="M8 7a4 4 0 1 0 8 0 4 4 0 0 0-8 0M6 21v-2a4 4 0 0 1 4-4h4a4 4 0 0 1 4 4v2"/></symbol><symbol fill="none" stroke="currentColor" stroke-width="2" stroke-linecap="round" stroke-linejoin="round" class="oicon oicon-tabler oicons-tabler-outline oicon-tabler-x" viewBox="0 0 24 24" id="x" xmlns="http://www.w3.org/2000/svg"><path d="M0 0h24v24H0z" stroke="none"/><path d="M18 6 6 18M6 6l12 12"/></symbol></svg>